<?xml version="1.0" encoding="UTF-8" standalone="no"?>
<svg
   xmlns:dc="http://purl.org/dc/elements/1.1/"
   xmlns:cc="http://creativecommons.org/ns#"
   xmlns:rdf="http://www.w3.org/1999/02/22-rdf-syntax-ns#"
   xmlns:svg="http://www.w3.org/2000/svg"
   xmlns="http://www.w3.org/2000/svg"
   xmlns:sodipodi="http://sodipodi.sourceforge.net/DTD/sodipodi-0.dtd"
   xmlns:inkscape="http://www.inkscape.org/namespaces/inkscape"
   width="287.50308mm"
   height="50.4832mm"
   viewBox="0 0 287.50309 50.4832"
   version="1.1"
   id="svg8"
   inkscape:version="1.0.2 (e86c870879, 2021-01-15, custom)"
   sodipodi:docname="Abstract floral dash, Ingall’s.svg">
  <defs
     id="defs2" />
  <sodipodi:namedview
     id="base"
     pagecolor="#ffffff"
     bordercolor="#666666"
     borderopacity="1.0"
     inkscape:pageopacity="0.0"
     inkscape:pageshadow="2"
     inkscape:zoom="1.4"
     inkscape:cx="467.14715"
     inkscape:cy="34.439164"
     inkscape:document-units="mm"
     inkscape:current-layer="layer1"
     inkscape:document-rotation="0"
     showgrid="false"
     showguides="true"
     inkscape:guide-bbox="true"
     inkscape:window-width="1920"
     inkscape:window-height="1057"
     inkscape:window-x="-8"
     inkscape:window-y="-8"
     inkscape:window-maximized="1">
    <sodipodi:guide
       position="66.717852,24.767103"
       orientation="0,-1"
       id="guide26" />
  </sodipodi:namedview>
  <metadata
     id="metadata5">
    <rdf:RDF>
      <cc:Work
         rdf:about="">
        <dc:format>image/svg+xml</dc:format>
        <dc:type
           rdf:resource="http://purl.org/dc/dcmitype/StillImage" />
        <dc:title></dc:title>
      </cc:Work>
    </rdf:RDF>
  </metadata>
  <g
     inkscape:label="Layer 1"
     inkscape:groupmode="layer"
     id="layer1"
     transform="translate(28.04488,-104.11872)">
    <path
       style="fill:#000000;stroke-width:0.264583"
       d="m 115.10403,154.4914 c -1.05662,-0.14871 -1.87531,-1.16773 -2.04952,-2.55101 -0.1412,-1.12129 -0.0849,-1.27241 0.78891,-2.11834 1.08422,-1.04959 0.91341,-1.22568 -1.16277,-1.19862 -1.59253,0.0208 -4.92184,-1.16865 -7.07095,-2.52613 -0.86658,-0.54737 -2.30489,-1.68622 -3.19626,-2.53078 -1.53012,-1.44982 -3.343726,-3.77146 -3.350473,-4.28905 -0.0062,-0.47454 -0.582051,-0.56484 -1.018207,-0.15967 -0.246477,0.22898 -1.141153,0.74458 -1.988166,1.14579 -1.36809,0.64804 -1.757489,0.71588 -3.487766,0.60768 -2.652898,-0.1659 -5.13601,-1.28704 -6.084642,-2.74726 -0.374107,-0.57586 -0.681663,-1.15993 -0.683462,-1.29793 -0.0018,-0.138 -0.178881,-0.42201 -0.393515,-0.63112 -0.323077,-0.31477 -1.769743,-0.36737 -8.405218,-0.3056 -4.408234,0.041 -9.444448,0.0283 -11.191583,-0.0283 l -3.176611,-0.10289 0.999229,0.53384 c 1.405949,0.75113 1.505076,2.28958 0.226038,3.50809 -1.066518,1.01604 -2.842217,1.0572 -4.137206,0.0959 -0.809601,-0.60099 -0.900634,-0.79222 -0.841843,-1.76841 0.05773,-0.95858 0.190555,-1.16641 1.069189,-1.67293 l 1.003272,-0.57836 -1.104028,-0.16182 c -0.607216,-0.089 -1.775806,-0.0345 -2.596867,0.12106 -0.828559,0.15701 -5.436827,0.31549 -10.356179,0.35616 -11.729169,0.097 -14.125647,0.50939 -16.052615,2.76265 -0.970453,1.13478 -1.226339,2.34645 -0.807649,3.82435 0.422763,1.49227 0.955987,1.42089 0.935834,-0.12528 -0.01305,-1.00151 0.112374,-1.32663 0.718156,-1.8616 0.84932,-0.75003 1.722987,-0.82927 2.948075,-0.26736 1.07254,0.49192 1.483035,1.3197 1.505401,3.03567 0.01423,1.09155 -0.104001,1.43833 -0.67584,1.98231 -1.698915,1.61617 -4.126313,1.46267 -5.967275,-0.37734 -1.521633,-1.52085 -1.67917,-4.07771 -0.407697,-6.61704 0.58286,-1.16406 3.033045,-2.63477 5.470483,-3.2836 1.982913,-0.52785 2.965057,-0.57814 14.560475,-0.74549 6.838767,-0.0991 18.005084,-0.19258 24.814022,-0.20853 13.347383,-0.0313 12.87463,-0.0806 12.903051,1.3441 0.01395,0.68664 1.399132,2.30984 2.39865,2.81031 0.382962,0.19177 1.413867,0.48013 2.290896,0.64084 2.263237,0.4147 4.562525,-0.22347 6.122274,-1.69926 0.616935,-0.58373 1.252316,-0.98293 1.411958,-0.88712 0.159643,0.0958 0.538865,0.72119 0.842704,1.38973 0.555815,1.22295 2.723425,3.90799 3.936265,4.87591 0.35886,0.28639 0.84055,0.72663 1.07042,0.97832 0.22988,0.25168 0.51238,0.45638 0.62779,0.45487 0.11541,-0.001 0.83836,0.3982 1.60655,0.88822 1.44722,0.92314 3.56429,1.68646 5.99074,2.15998 4.75943,0.9288 10.93009,-0.71844 14.73268,-3.93285 1.65498,-1.39898 2.04797,-1.91802 3.44116,-4.54491 0.60235,-1.13573 1.27018,-2.06725 1.48409,-2.07004 0.21389,-0.003 0.83661,0.45222 1.38382,1.01112 1.80638,1.845 5.11143,2.13792 7.67584,0.6803 1.64928,-0.93746 2.94617,-2.04386 2.94012,-2.50827 -0.002,-0.16322 0.15407,-0.51878 0.3471,-0.79013 0.32741,-0.46024 0.81099,-0.49582 7.2036,-0.53017 13.14726,-0.0707 33.61048,0.10894 37.68399,0.33071 7.47603,0.40702 10.33332,1.25399 11.92179,3.53388 0.75282,1.08051 0.93816,1.62172 1.06386,3.10643 0.14945,1.76518 0.13451,1.81982 -0.81907,2.99745 -1.26375,1.56069 -1.80258,1.85114 -3.496,1.88454 -2.85963,0.0564 -3.95094,-1.37692 -3.3799,-4.43912 0.19879,-1.06601 1.39397,-1.8738 2.80165,-1.89352 1.32202,-0.0182 2.5741,1.11669 2.59015,2.3484 0.007,0.55304 0.12235,0.79619 0.34012,0.71823 0.21336,-0.0764 0.31951,-0.65273 0.30163,-1.63766 -0.0272,-1.47432 -0.0674,-1.55682 -1.35896,-2.75641 -1.71113,-1.58935 -3.28682,-2.05514 -7.29699,-2.15709 -1.67418,-0.0426 -4.77113,-0.12426 -6.88212,-0.18155 -2.11097,-0.0573 -5.68414,-0.1332 -7.94037,-0.16868 -2.25622,-0.0355 -4.84735,-0.13493 -5.75805,-0.22101 -1.16626,-0.11023 -1.65467,-0.0674 -1.6519,0.14482 0.002,0.16571 0.2123,0.30123 0.46698,0.30114 0.67648,1.9e-4 1.57439,0.79843 1.76458,1.56949 0.21904,0.88808 -0.62999,2.31263 -1.51861,2.54801 -1.26839,0.33598 -2.58854,-0.0491 -3.51323,-1.02477 -0.47957,-0.50602 -0.87426,-1.09622 -0.87707,-1.31156 -0.003,-0.21533 0.34949,-0.80615 0.78288,-1.31292 l 0.78797,-0.92139 -5.09804,0.13685 c -2.80393,0.0752 -7.69215,0.0736 -10.86272,-0.004 -3.17057,-0.0773 -5.93442,-0.0728 -6.14188,0.01 -0.20746,0.0827 -0.4513,0.4083 -0.54184,0.72348 -0.41585,1.44749 -3.24733,3.39349 -5.53926,3.80698 -1.845,0.33285 -3.89686,-0.0387 -5.55014,-1.00516 -0.82431,-0.48185 -1.59413,-0.87485 -1.71073,-0.87333 -0.11659,0.002 -0.34106,0.41167 -0.49882,0.91146 -0.15775,0.49978 -0.46604,1.06142 -0.6851,1.2481 -0.21906,0.18667 -0.61675,0.78178 -0.88376,1.32245 -0.26701,0.54067 -1.27279,1.61854 -2.23507,2.39527 -2.80116,2.26101 -6.10793,3.61445 -9.7137,3.97574 -1.42467,0.14275 -1.94067,0.27596 -1.58231,0.40847 0.70993,0.26252 1.62918,1.28847 1.81908,2.03024 0.26927,1.05181 -0.27106,2.4314 -1.17442,2.99849 -0.80614,0.50607 -1.36271,0.57762 -2.85707,0.36729 z m -0.37707,-11.20571 c -2.55668,-0.26373 -4.30874,-0.81506 -5.70165,-1.79418 -0.68439,-0.48107 -1.65635,-1.167 -2.15993,-1.52427 -0.50358,-0.35727 -1.12441,-0.94454 -1.37964,-1.30504 -0.25522,-0.36052 -0.62451,-0.8154 -0.82065,-1.01086 -0.46481,-0.46325 -1.56958,-2.58254 -2.09834,-4.02531 -0.2295,-0.62622 -0.50654,-2.16027 -0.61566,-3.40898 -0.16704,-1.91165 -0.11108,-2.56044 0.35414,-4.10601 0.6764,-2.24718 1.198,-3.37371 2.21286,-4.77919 3.15761,-4.37298 9.39947,-6.72295 14.53524,-5.47229 5.24838,1.27806 9.26349,5.03631 10.54322,9.86871 0.4377,1.65278 0.27379,5.62317 -0.32452,7.86099 -1.73888,6.50387 -7.60215,10.4126 -14.54507,9.69643 z m -0.42361,-3.30863 c 0.48652,-0.23868 0.93552,-0.63151 0.99778,-0.87297 0.2573,-0.99779 0.47954,-2.57833 0.3971,-2.82415 -0.0486,-0.1449 -0.16563,-0.73535 -0.2601,-1.3121 -0.12409,-0.75769 -0.35247,-1.13575 -0.82308,-1.36257 -0.77575,-0.37389 -0.95712,-0.28347 -2.54269,1.2676 -1.96758,1.92478 -2.33538,3.5737 -1.00608,4.51041 0.44221,0.3116 1.78791,0.91232 2.25994,1.00883 0.0509,0.0104 0.49062,-0.17636 0.97713,-0.41505 z m 6.26065,-0.35347 c 0.99125,-0.52909 1.74957,-1.40888 1.75347,-2.03435 0.005,-0.72615 -0.84703,-1.89319 -2.32754,-3.18979 -1.47543,-1.29218 -2.15827,-1.46313 -2.82466,-0.70719 -0.84295,0.9562 -0.42105,5.3372 0.58275,6.05131 0.64926,0.46187 1.81925,0.41202 2.81598,-0.12001 z m -10.40335,-4.53668 c 0.61979,-0.48565 1.4631,-1.37485 1.87401,-1.976 0.61573,-0.90081 0.69491,-1.18756 0.45027,-1.63069 -0.7141,-1.29349 -1.00389,-1.3891 -3.57651,-1.1799 -2.11826,0.17225 -2.4915,0.27847 -3.00541,0.85526 -1.07627,1.20797 -0.51799,3.34773 1.1276,4.32192 1.19291,0.7062 1.83205,0.62644 3.13004,-0.39059 z m 15.70466,-0.51165 c 0.47553,-0.64059 0.69192,-1.2828 0.71332,-2.11692 0.0474,-1.84782 -0.39224,-2.12084 -3.49648,-2.17125 -1.41434,-0.023 -2.70041,0.0533 -2.85792,0.16955 -0.15752,0.11622 -0.35434,0.58697 -0.43739,1.04612 -0.17027,0.94143 0.22763,1.50054 2.19458,3.08358 1.61192,1.29732 2.91539,1.2936 3.88389,-0.0111 z m -8.39702,-2.27396 c 1.45934,-0.77892 1.85087,-1.99047 1.2779,-3.95425 -0.227,-0.77801 -0.50193,-1.09306 -1.19866,-1.37355 -1.17575,-0.47337 -1.82592,-0.45023 -2.95823,0.10526 -1.11694,0.54796 -1.75705,1.90925 -1.52333,3.23959 0.33978,1.93406 2.59267,2.94883 4.40232,1.98292 z m -2.28373,-0.91172 c -0.69368,-0.26905 -1.15528,-1.02885 -1.1669,-1.92078 -0.0238,-1.82162 2.34112,-2.60538 3.59095,-1.19011 0.81671,0.92484 0.82121,1.86641 0.0129,2.69609 -0.66028,0.67772 -1.42388,0.8077 -2.43693,0.4148 z m -3.36094,-2.76778 c 0.39106,-0.25285 0.58701,-0.64053 0.58039,-1.14826 -0.008,-0.60976 -0.37463,-1.08711 -1.79288,-2.33397 -1.9283,-1.69529 -2.62291,-1.99746 -3.65451,-1.58979 -0.84319,0.33322 -1.98444,2.16878 -1.97138,3.17074 0.0139,1.06707 0.91841,2.09008 1.95358,2.20954 1.87601,0.2165 4.31087,0.0628 4.8848,-0.30826 z m 14.82181,-0.3701 c 1.49803,-1.39351 0.32514,-4.52537 -1.87766,-5.01376 -0.8269,-0.18334 -1.44362,0.21403 -3.4572,2.22756 -1.09107,1.09106 -1.49774,1.69428 -1.49262,2.21406 0.011,1.07681 0.64051,1.27865 3.62411,1.16117 2.14635,-0.0845 2.78781,-0.20246 3.20337,-0.58903 z m -5.72156,-3.98149 c 0.60324,-0.60888 1.31921,-1.53329 1.59106,-2.05425 0.48336,-0.92625 0.48312,-0.96729 -0.0109,-1.85656 -0.27782,-0.50017 -0.90789,-1.09504 -1.40015,-1.32197 -1.08287,-0.49917 -2.72052,-0.51572 -3.36162,-0.034 -0.51903,0.39001 -0.89441,2.05286 -0.88762,3.9319 0.0136,3.75393 1.26567,4.16467 4.06919,1.33487 z m -6.19792,1.54403 c 1.0314,-0.37469 1.16709,-0.89207 1.00746,-3.84115 -0.11422,-2.11081 -0.17758,-2.32126 -0.8738,-2.90451 -1.19802,-1.00364 -3.04369,-0.72448 -4.47472,0.67678 -1.32151,1.29403 -0.88418,2.6607 1.62431,5.07581 1.44448,1.39072 1.53305,1.42309 2.71675,0.99307 z m 92.15631,9.49771 c -0.0983,-0.0957 -0.18301,-0.50659 -0.18831,-0.913 -0.0122,-0.93521 -1.58435,-2.40349 -3.48381,-3.25363 -1.16021,-0.51927 -2.025,-0.63767 -5.9113,-0.80926 -4.45327,-0.19662 -20.01429,-0.21404 -43.05042,-0.0482 l -11.50928,0.0829 -0.0785,0.7793 c -0.26246,2.60712 -4.43453,4.47344 -7.17864,3.21128 -1.08415,-0.49865 -2.48149,-1.95918 -2.90873,-3.04027 -0.55077,-1.39368 0.23689,-4.1323 1.54873,-5.38482 1.38815,-1.32536 4.21552,-1.67124 6.31893,-0.77302 1.01958,0.4354 1.34792,0.76964 2.02965,2.06611 l 0.81328,1.54668 5.00933,-3.9e-4 c 2.75513,-2e-4 8.28404,0.0159 12.28647,0.0358 16.46198,0.082 39.08339,-0.14557 40.9884,-0.41237 2.57617,-0.36081 4.15639,-1.30213 4.87511,-2.90407 0.64166,-1.43021 1.41104,-1.46331 1.86425,-0.0802 0.42905,1.3094 1.59051,3.6701 1.80792,3.67468 0.10071,0.002 0.33548,-0.56373 0.52168,-1.25745 0.28653,-1.0675 0.43881,-1.26259 0.9911,-1.26979 0.54337,-0.007 0.72492,0.2004 1.08511,1.24006 0.56249,1.6236 0.65994,1.69017 1.04858,0.71619 0.40748,-1.02119 1.43555,-1.87047 2.27751,-1.88144 0.7563,-0.01 1.71733,0.43593 2.02299,0.93838 0.34392,0.56536 0.58975,0.41667 0.92931,-0.56208 0.44376,-1.2791 2.37131,-2.56253 3.87807,-2.58217 1.54444,-0.0201 3.90962,0.59467 5.27518,1.3712 4.02211,2.28723 8.08728,2.75507 22.65588,2.60738 l 8.06515,-0.0817 0.36582,0.737 c 0.31769,0.64004 0.30812,0.82762 -0.0728,1.42588 l -0.43865,0.6889 -3.08127,-0.12847 c -6.30908,-0.26304 -10.89322,-0.25082 -15.73365,0.042 -4.49164,0.27167 -5.22578,0.38512 -7.52611,1.16302 -1.40194,0.47408 -2.90414,1.02039 -3.33821,1.21403 -4.54468,2.0273 -7.55001,2.24041 -9.27277,0.65754 -0.5824,-0.5351 -0.92021,-1.09086 -0.92584,-1.52319 -0.0122,-0.93207 -0.46966,-1.12885 -1.15061,-0.49489 -1.35314,1.25979 -3.23714,0.75789 -3.88882,-1.03598 -0.341,-0.93867 -0.5539,-0.76206 -1.16432,0.96585 -0.24534,0.69447 -0.52554,1.2619 -0.62266,1.26094 -0.49797,-0.005 -0.88241,-0.54305 -1.26402,-1.76925 -0.52547,-1.68848 -0.84169,-1.90122 -1.16202,-0.78176 -0.13692,0.47849 -0.56032,1.64801 -0.94088,2.59894 -0.77112,1.92682 -1.25385,2.46327 -1.76684,1.96348 z m 20.48541,-3.15473 c 2.46008,-0.98817 3.85914,-1.46813 5.95524,-2.04291 0.63042,-0.17287 1.08463,-0.37432 1.00938,-0.44765 -0.0753,-0.0733 -1.01921,-0.34715 -2.09766,-0.60849 -1.07844,-0.26135 -3.00493,-0.94116 -4.28113,-1.51068 -1.93997,-0.86578 -2.59613,-1.03193 -4.00278,-1.0136 -1.77991,0.0232 -2.39452,0.37642 -2.21508,1.27304 0.14205,0.70985 1.772,1.37792 3.31395,1.35829 0.82412,-0.0105 1.47624,0.12317 1.66149,0.34056 0.51372,0.60282 -0.29196,0.99571 -2.38957,1.16524 -2.01745,0.16305 -2.85044,0.59719 -2.83894,1.47962 0.0174,1.33528 2.57021,1.33814 5.8851,0.007 z m -87.0541,0.72924 c 0.24699,-0.13634 0.76438,-0.67265 1.14976,-1.19179 0.54,-0.72745 0.62786,-1.01486 0.38312,-1.25329 -0.24472,-0.23844 -0.52197,-0.0803 -1.20895,0.68947 -0.89592,1.00391 -1.59288,1.20959 -2.93855,0.8672 -1.13226,-0.28809 -1.59782,-2.70096 -0.73284,-3.7981 0.31613,-0.40096 0.86087,-0.64057 1.69524,-0.74565 1.13602,-0.14306 1.29157,-0.0885 2.04672,0.71687 0.59241,0.63187 0.89597,0.79091 1.10335,0.57806 0.37014,-0.37992 -0.71905,-2.05249 -1.58519,-2.43428 -1.53251,-0.6755 -3.94461,0.0244 -4.53514,1.31592 -0.99678,2.18003 -0.64119,4.18644 0.93581,5.28022 0.71529,0.49611 1.06215,0.56555 2.04931,0.41023 0.65355,-0.10283 1.39038,-0.29851 1.63736,-0.43486 z m 80.08117,-2.99205 c -0.004,-0.31002 -1.05802,-1.02084 -1.2387,-0.83539 -0.0639,0.0656 -0.18331,0.56938 -0.26523,1.11938 l -0.14893,1.00001 0.82823,-0.50392 c 0.45553,-0.27715 0.82661,-0.62819 0.82463,-0.78008 z m -129.334563,4.42557 c -1.379997,-0.52794 -2.942478,-2.44064 -2.957861,-3.62085 -0.0069,-0.52998 -0.143434,-0.54108 -6.02617,-0.49026 -3.310507,0.0286 -15.885411,0.13485 -27.944231,0.23611 -18.793663,0.15775 -22.200364,0.24465 -23.852201,0.6084 -2.310828,0.5088 -4.371239,1.77507 -4.961804,3.04937 -0.46266,0.99831 -1.14556,1.0657 -1.594048,0.15729 -0.153235,-0.31038 -0.645938,-1.3402 -1.094897,-2.28849 -0.44896,-0.94829 -0.889697,-1.72779 -0.979415,-1.73224 -0.08972,-0.005 -0.39179,0.62003 -0.671277,1.38773 -0.713215,1.95907 -1.364406,2.02069 -2.147648,0.20321 l -0.58813,-1.36474 -0.681138,1.03746 c -0.374626,0.57059 -0.81371,1.12666 -0.975744,1.23569 -0.601589,0.40481 -1.644061,0.18789 -2.528159,-0.52607 -0.792934,-0.64034 -0.928961,-0.92585 -1.052175,-2.20846 l -0.141511,-1.47305 -0.692601,0.30262 c -0.380929,0.16644 -0.860059,0.45654 -1.064727,0.64466 -0.315468,0.28998 -0.268,0.3801 0.31177,0.59192 0.776599,0.28373 1.543835,1.22554 1.552704,1.906 0.02316,1.77694 -2.156542,3.21047 -4.9039507,3.2252 -2.0078132,0.0108 -5.4026506,-0.8206 -6.718111,-1.64517 -1.70630144,-1.06958 -5.697412,-2.05541 -9.691529,-2.3939 -1.4557225,-0.12337 -6.2351503,-0.15203 -10.6209523,-0.0637 -7.514598,0.15135 -8.006678,0.13196 -8.537919,-0.33614 -0.659956,-0.5815 -0.704346,-0.9208 -0.211166,-1.61404 0.343846,-0.48333 0.885123,-0.51472 11.699965,-0.67845 l 11.3394386,-0.1717 2.6359298,-0.77707 c 1.44976101,-0.42739 3.5932351,-1.18524 4.7632736,-1.68413 3.2071922,-1.36747 4.926315,-1.67747 7.2096217,-1.30006 2.0384163,0.33693 2.8398083,0.95256 3.1538343,2.42278 0.187027,0.87563 0.283074,0.89273 1.020429,0.1817 0.312039,-0.30089 0.988501,-0.62107 1.503248,-0.7115 0.804493,-0.14134 1.001036,-0.0677 1.399805,0.52385 0.255148,0.37855 0.617495,1.11678 0.805216,1.64052 0.389178,1.08581 0.634044,0.89192 1.064094,-0.84253 0.216975,-0.87511 0.377786,-1.06389 0.912163,-1.07085 0.543643,-0.007 0.722597,0.20492 1.104586,1.30862 0.250709,0.72441 0.536016,1.29121 0.634013,1.25958 0.189485,-0.0612 1.05701,-1.63346 1.896591,-3.43735 0.754081,-1.62019 1.239349,-1.67516 1.966305,-0.22272 1.013412,2.02478 3.709384,3.0848 8.305989,3.26581 3.486417,0.13728 21.750132,0.11558 41.539789,-0.0494 l 12.697019,-0.10579 0.356589,-0.79661 c 0.902606,-2.01643 3.001011,-3.34486 5.331523,-3.37523 2.638116,-0.0344 4.568324,1.51967 5.08128,4.09103 0.273341,1.37023 0.255337,1.76442 -0.126075,2.75962 -0.584097,1.52404 -1.076113,2.06086 -2.453462,2.67684 -1.246749,0.55758 -3.935339,0.69785 -5.068274,0.26443 z m 4.09425,-2.24031 c 1.001462,-0.88876 1.023988,-0.94908 1.001417,-2.68082 -0.02146,-1.64656 -0.08156,-1.82248 -0.851438,-2.49254 -1.672037,-1.45523 -4.119942,-1.15035 -5.480569,0.68257 -0.380325,0.51234 -0.690609,0.99899 -0.689534,1.08146 0.0052,0.40169 0.828291,0.0553 1.578974,-0.66444 2.382016,-2.284 5.79975,0.79082 3.501281,3.14999 -1.105466,1.13466 -2.340378,1.09804 -3.576276,-0.10604 -1.397848,-1.36188 -1.910031,-1.16165 -1.067292,0.41724 0.554845,1.03953 1.600808,1.53704 3.213926,1.52873 1.155939,-0.006 1.489021,-0.13475 2.369511,-0.91615 z m -85.8569059,0.94718 c 0.2926511,-0.16157 0.5045339,-0.55873 0.4996098,-0.93652 -0.013084,-1.00382 -1.3753589,-1.68567 -3.3292928,-1.66641 -1.7563131,0.0169 -2.40829,-0.2356 -2.1828601,-0.84676 0.1107968,-0.30037 0.7747804,-0.46155 2.5811731,-0.62658 1.8407717,-0.16817 2.5500736,-0.34336 2.9176892,-0.72069 0.6254707,-0.64199 0.6082467,-0.88978 -0.1069755,-1.5389 -0.8953699,-0.81263 -2.6461374,-0.66506 -5.956108,0.50202 -1.5612858,0.55052 -3.07482824,1.15592 -3.3634261,1.34533 -0.28859773,0.18943 -0.99940999,0.46743 -1.5795829,0.61777 -0.5801729,0.15035 -1.4108896,0.36456 -1.8460357,0.47603 l -0.7911761,0.20268 0.7982629,0.34105 c 0.439044,0.18757 1.1225411,0.34218 1.5188829,0.34358 0.3963486,0.002 1.23270511,0.22039 1.85858434,0.48665 5.10232736,2.17059 7.66529756,2.74725 8.98125796,2.02075 z M 178.72372,124.59489 c -0.0819,-0.0798 -7.57311,-0.0451 -16.64711,0.0772 -9.074,0.12227 -16.63151,0.13807 -16.79446,0.0352 -0.16295,-0.10289 -0.49871,-0.56982 -0.74614,-1.03761 -0.7456,-1.40966 -2.03581,-2.6577 -3.30965,-3.20144 -2.43373,-1.03884 -5.80349,-0.39551 -7.26395,1.38681 -1.15195,1.4058 -1.6699,1.12884 -2.50039,-1.337 -0.28261,-0.83912 -0.97884,-2.0803 -1.54719,-2.75819 -1.08079,-1.28911 -3.60965,-3.4481 -4.03239,-3.44259 -0.13507,0.002 -0.43814,-0.16653 -0.67347,-0.37398 -0.92923,-0.81917 -4.22363,-1.91357 -6.82079,-2.26585 -4.59555,-0.62336 -9.18308,0.40648 -12.22547,2.74443 -0.49629,0.38137 -1.04814,0.69531 -1.22635,0.69763 -0.57537,0.008 -3.77218,3.83262 -4.74723,5.68025 -0.520691,0.98667 -1.075578,1.79764 -1.233073,1.80216 -0.15751,0.004 -0.667732,-0.45386 -1.133832,-1.01863 -1.654721,-2.00499 -5.309577,-2.65686 -7.872478,-1.40412 -1.323064,0.64671 -2.034979,1.32236 -3.37512,3.20321 l -0.727457,1.02096 -2.55336,-0.12092 c -1.40435,-0.0665 -12.342474,-0.0485 -24.306941,0.0401 -11.964467,0.0885 -22.025851,0.10781 -22.358633,0.0428 -6.741815,-1.31711 -8.514155,-2.63404 -8.541126,-6.34646 -0.01395,-1.92096 0.357817,-2.66005 1.876955,-3.73142 0.755902,-0.53309 1.147218,-0.61788 2.539854,-0.55032 2.16432,0.10501 2.995649,0.78902 3.017728,2.48299 0.02658,2.03911 -0.762448,2.9677 -2.552775,3.0043 -1.386157,0.0284 -2.44655,-0.84182 -2.461909,-2.02022 -0.01315,-1.00896 -0.265002,-1.20699 -0.847179,-0.66617 -0.972997,0.9039 -0.30771,3.55659 1.144178,4.56216 0.959167,0.66433 3.304247,1.50382 4.644544,1.66267 0.59742,0.0708 5.729948,0.12102 11.40562,0.11159 5.675671,-0.009 11.166962,0.0534 12.202864,0.13973 1.221122,0.10171 1.942519,0.0585 2.051403,-0.12295 0.09682,-0.1613 -0.170013,-0.34944 -0.63,-0.4442 -0.985538,-0.20304 -1.603553,-1.01885 -1.618114,-2.13601 -0.02047,-1.57081 2.157798,-2.616 4.223231,-2.0264 1.217696,0.3476 1.850956,1.12512 1.866156,2.29128 0.01242,0.95289 -0.497768,1.60733 -1.4496,1.85945 -0.35244,0.0933 -0.639761,0.24612 -0.638491,0.33947 0.0013,0.0934 5.131589,0.10289 11.400714,0.0212 l 11.398407,-0.14856 0.325419,-0.79806 c 0.418337,-1.02593 2.586494,-3.07668 3.262137,-3.08549 0.285685,-0.004 0.591448,-0.12678 0.679483,-0.27346 0.088,-0.14668 1.228327,-0.28062 2.533987,-0.29764 2.537704,-0.0331 3.675571,0.27308 5.188143,1.3959 0.475713,0.35313 0.962148,0.63962 1.080969,0.63665 0.118827,-0.003 0.448809,-0.41812 0.733299,-0.92254 1.600797,-2.8383 5.400887,-6.21473 8.641767,-7.67834 2.25387,-1.01786 2.81379,-1.15242 5.66144,-1.36051 2.74139,-0.20032 2.76194,-0.20674 1.6612,-0.51947 -1.3918,-0.39544 -2.21507,-1.37213 -2.2317,-2.64759 -0.0225,-1.72636 1.35887,-2.95157 3.35714,-2.97762 0.87743,-0.0114 1.1919,0.14959 2.00553,1.02691 0.82416,0.88869 0.94265,1.16702 0.8122,1.90781 -0.22757,1.29237 -0.48935,1.68804 -1.57657,2.38293 l -0.98739,0.63108 2.27356,0.26973 c 2.99465,0.35527 3.13223,0.40096 6.16063,2.04544 3.57534,1.94149 5.57477,3.79446 6.75187,6.25733 0.88521,1.85213 1.26752,2.24515 1.61719,1.66253 0.0879,-0.1464 0.82718,-0.59263 1.64293,-0.99164 1.17696,-0.57568 1.86834,-0.72925 3.34873,-0.74384 2.96241,-0.0296 5.01238,1.05807 6.62937,3.51607 l 0.89684,1.36331 5.40115,-0.24676 c 2.97064,-0.13573 6.5923,-0.21467 8.04815,-0.17541 1.45583,0.0392 4.13596,0.11521 5.95583,0.16884 l 3.30884,0.0975 -0.86874,-0.67332 c -1.08267,-0.83913 -1.18176,-1.94616 -0.25896,-2.89333 1.25906,-1.29232 3.35013,-1.23433 4.52495,0.12548 0.84472,0.97775 0.75332,1.89392 -0.27621,2.76846 -0.66739,0.56692 -0.66908,0.57796 -0.11391,0.74623 0.30992,0.094 0.69427,0.0876 0.85409,-0.0141 0.15984,-0.10169 5.78487,-0.27199 12.50007,-0.37846 l 12.20945,-0.19354 1.57682,-0.82966 c 1.29922,-0.68358 1.68482,-1.05198 2.1902,-2.09251 0.4904,-1.00967 0.56374,-1.42781 0.36577,-2.0856 -0.34079,-1.13236 -0.90693,-1.26185 -0.89315,-0.20429 0.0231,1.76881 -2.06628,2.72251 -3.92524,1.79172 -1.27787,-0.63985 -1.52036,-2.77612 -0.46176,-4.06801 1.74642,-2.13129 4.8552,-1.65532 6.22939,0.95374 0.93663,1.7783 0.58275,3.67419 -1.04451,5.59582 -0.9521,1.12432 -3.65514,2.06641 -6.9499,2.42223 -2.99599,0.32355 -15.51597,0.58786 -15.77748,0.33306 z"
       id="path24" />
  </g>
</svg>
