<svg width="2rem" height="2rem" viewBox="0 0 33 32" fill="none" xmlns="http://www.w3.org/2000/svg"><circle cx="16.881" cy="16" r="15.5" fill="#fff" stroke="#D2D4CD"></circle><path d="M23.256 12.074a4.848 4.848 0 0 1-1.392.382c.5-.3.885-.775 1.066-1.341a4.854 4.854 0 0 1-1.539.588 2.424 2.424 0 0 0-4.13 2.21 6.88 6.88 0 0 1-4.995-2.532 2.422 2.422 0 0 0 .75 3.236 2.414 2.414 0 0 1-1.097-.304v.031c0 1.174.835 2.154 1.943 2.376a2.425 2.425 0 0 1-1.094.042 2.426 2.426 0 0 0 2.264 1.683 4.862 4.862 0 0 1-3.588 1.003 6.86 6.86 0 0 0 3.715 1.09c4.458 0 6.895-3.694 6.895-6.896 0-.105-.002-.21-.007-.314a4.928 4.928 0 0 0 1.21-1.254Z" fill="#686F59"></path></svg>